# Blender v2.79 (sub 0) OBJ File: 'AmmoBoxShells.blend'
# www.blender.org
o Cube_Cube.001
v -1.000000 -2.909656 3.980469
v -1.000000 -0.020103 3.980469
v -1.000000 -2.909656 -3.223809
v -1.000000 -0.020103 -3.223809
v 3.000000 -2.909656 3.980469
v 3.000000 -0.020103 3.980469
v 3.000000 -2.909656 -3.223809
v 3.000000 -0.020103 -3.223809
vt 0.990326 0.507772
vt 0.990326 0.996718
vt 0.005706 0.996718
vt 0.005706 0.507772
vt 0.925442 0.444907
vt 0.048535 0.444907
vt 0.048406 0.023499
vt 0.925442 0.023053
vt 0.996186 0.502850
vt 0.996186 0.997548
vt 0.001800 0.997548
vt 0.001800 0.502850
vt 0.924952 0.446023
vt 0.048095 0.446023
vt 0.048095 0.024160
vt 0.924952 0.024160
vt 0.502966 0.000145
vt 0.996937 0.000145
vt 0.996937 0.500585
vt 0.502966 0.500585
vt -0.000166 0.000313
vt -0.000166 0.497331
vt 0.498303 0.497331
vt 0.498303 0.000313
vn -1.0000 0.0000 0.0000
vn 0.0000 0.0000 -1.0000
vn 1.0000 0.0000 0.0000
vn 0.0000 0.0000 1.0000
vn 0.0000 -1.0000 0.0000
vn 0.0000 1.0000 0.0000
s off
f 1/1/1 2/2/1 4/3/1 3/4/1
f 3/5/2 4/6/2 8/7/2 7/8/2
f 7/9/3 8/10/3 6/11/3 5/12/3
f 5/13/4 6/14/4 2/15/4 1/16/4
f 3/17/5 7/18/5 5/19/5 1/20/5
f 8/21/6 4/22/6 2/23/6 6/24/6
