# Blender 3.3.14
# www.blender.org
o Cube
v 0.500000 11.040033 -0.500000
v 0.500000 -11.040033 -0.500000
v 0.500000 11.040033 0.500000
v 0.500000 -11.040033 0.500000
v -0.500000 11.040033 -0.500000
v -0.500000 -11.040033 -0.500000
v -0.500000 11.040033 0.500000
v -0.500000 -11.040033 0.500000
v 0.500000 11.540033 -0.550000
v 0.500000 11.540033 0.550000
v -0.500000 11.540033 -0.550000
v -0.500000 11.540033 0.550000
v 0.500000 -11.540033 -0.550000
v 0.500000 -11.540033 0.550000
v -0.500000 -11.540033 -0.550000
v -0.500000 -11.540033 0.550000
v 0.500000 11.040033 -30.500000
v 0.500000 -11.040033 -30.500000
v 0.500000 11.040033 -29.500000
v 0.500000 -11.040033 -29.500000
v -0.500000 11.040033 -30.500000
v -0.500000 -11.040033 -30.500000
v -0.500000 11.040033 -29.500000
v -0.500000 -11.040033 -29.500000
v 0.500000 11.540033 -30.549999
v 0.500000 11.540033 -29.450001
v -0.500000 11.540033 -30.549999
v -0.500000 11.540033 -29.450001
v 0.500000 -11.540033 -30.549999
v 0.500000 -11.540033 -29.450001
v -0.500000 -11.540033 -30.549999
v -0.500000 -11.540033 -29.450001
v 0.000000 10.813368 -0.110720
v 0.000000 -9.157576 -0.110720
v 0.000000 10.813368 -29.931503
v 0.000000 -9.157576 -29.931503
v 0.500000 10.977036 -0.972951
v 0.500000 10.977036 -29.026566
v 0.500000 9.977036 -0.972951
v 0.500000 9.977036 -29.026566
v -0.500000 10.977036 -0.972951
v -0.500000 10.977036 -29.026566
v -0.500000 9.977036 -0.972951
v -0.500000 9.977036 -29.026566
v 0.500000 11.027035 -0.472951
v 0.500000 9.927035 -0.472951
v -0.500000 11.027035 -0.472951
v -0.500000 9.927035 -0.472951
v 0.500000 11.027036 -29.526566
v 0.500000 9.927036 -29.526566
v -0.500000 11.027036 -29.526566
v -0.500000 9.927036 -29.526566
v 0.500000 -8.344301 -0.972951
v 0.500000 -8.344300 -29.026566
v 0.500000 -9.344301 -0.972951
v 0.500000 -9.344300 -29.026566
v -0.500000 -8.344301 -0.972951
v -0.500000 -8.344300 -29.026566
v -0.500000 -9.344301 -0.972951
v -0.500000 -9.344300 -29.026566
v 0.500000 -8.294302 -0.472951
v 0.500000 -9.394301 -0.472951
v -0.500000 -8.294302 -0.472951
v -0.500000 -9.394301 -0.472951
v 0.500000 -8.294301 -29.526566
v 0.500000 -9.394300 -29.526566
v -0.500000 -8.294301 -29.526566
v -0.500000 -9.394300 -29.526566
v -0.000002 10.813366 -29.931503
v -0.000002 -9.157574 -29.931503
v 0.000002 10.813366 -0.110720
v 0.000002 -9.157574 -0.110720
vn -0.0000 -0.0995 -0.9950
vn -0.0000 -0.0000 1.0000
vn -1.0000 -0.0000 -0.0000
vn -0.0000 0.0995 -0.9950
vn 1.0000 -0.0000 -0.0000
vn -0.0000 -0.0000 -1.0000
vn -0.0000 1.0000 -0.0000
vn -0.0000 -0.0995 0.9950
vn -0.0000 -1.0000 -0.0000
vn -0.0000 0.0995 0.9950
vn -0.0000 0.9950 -0.0995
vn -0.0000 0.9950 0.0995
vn -0.0000 -0.9950 -0.0995
vn -0.0000 -0.9950 0.0995
vt 0.024444 0.960413
vt 0.024444 0.878626
vt 0.020740 0.960413
vt 0.020740 0.878626
vt 0.024444 0.960413
vt 0.024444 0.878626
vt 0.020740 0.960413
vt 0.020740 0.878626
vt 0.024629 0.962265
vt 0.020555 0.962265
vt 0.024629 0.962265
vt 0.020555 0.962265
vt 0.024629 0.876774
vt 0.020555 0.876774
vt 0.024629 0.876774
vt 0.020555 0.876774
vt 0.135567 0.960413
vt 0.135567 0.878626
vt 0.131863 0.960413
vt 0.131863 0.878626
vt 0.135567 0.960413
vt 0.135567 0.878626
vt 0.131863 0.960413
vt 0.131863 0.878626
vt 0.135752 0.962265
vt 0.131678 0.962265
vt 0.135752 0.962265
vt 0.131678 0.962265
vt 0.135752 0.876774
vt 0.131678 0.876774
vt 0.135752 0.876774
vt 0.131678 0.876774
vt 0.148989 0.020548
vt 0.980622 0.020548
vt 0.148989 0.852181
vt 0.980622 0.852181
vt 0.026196 0.960179
vt 0.130109 0.960179
vt 0.026196 0.956475
vt 0.130109 0.956475
vt 0.026196 0.960179
vt 0.130109 0.960179
vt 0.026196 0.956475
vt 0.130109 0.956475
vt 0.024344 0.960365
vt 0.024344 0.956290
vt 0.024344 0.960365
vt 0.024344 0.956290
vt 0.131961 0.960365
vt 0.131961 0.956290
vt 0.131961 0.960365
vt 0.131961 0.956290
vt 0.026196 0.888611
vt 0.130109 0.888611
vt 0.026196 0.884907
vt 0.130109 0.884907
vt 0.026196 0.888611
vt 0.130109 0.888611
vt 0.026196 0.884907
vt 0.130109 0.884907
vt 0.024344 0.888796
vt 0.024344 0.884722
vt 0.024344 0.888796
vt 0.024344 0.884722
vt 0.131961 0.888796
vt 0.131961 0.884722
vt 0.131961 0.888796
vt 0.131961 0.884722
vt 0.148989 0.020548
vt 0.980622 0.020548
vt 0.148989 0.852181
vt 0.980622 0.852181
s 0
f 1/1/1 5/5/1 11/11/1 9/9/1
f 4/4/2 3/3/2 7/7/2 8/8/2
f 8/8/3 7/7/3 5/5/3 6/6/3
f 6/6/4 2/2/4 13/13/4 15/15/4
f 2/2/5 1/1/5 3/3/5 4/4/5
f 6/6/6 5/5/6 1/1/6 2/2/6
f 9/9/7 11/11/7 12/12/7 10/10/7
f 7/7/8 3/3/8 10/10/8 12/12/8
f 5/5/3 7/7/3 12/12/3 11/11/3
f 3/3/5 1/1/5 9/9/5 10/10/5
f 15/15/9 13/13/9 14/14/9 16/16/9
f 4/4/10 8/8/10 16/16/10 14/14/10
f 8/8/3 6/6/3 15/15/3 16/16/3
f 2/2/5 4/4/5 14/14/5 13/13/5
f 17/17/1 21/21/1 27/27/1 25/25/1
f 20/20/2 19/19/2 23/23/2 24/24/2
f 24/24/3 23/23/3 21/21/3 22/22/3
f 22/22/4 18/18/4 29/29/4 31/31/4
f 18/18/5 17/17/5 19/19/5 20/20/5
f 22/22/6 21/21/6 17/17/6 18/18/6
f 25/25/7 27/27/7 28/28/7 26/26/7
f 23/23/8 19/19/8 26/26/8 28/28/8
f 21/21/3 23/23/3 28/28/3 27/27/3
f 19/19/5 17/17/5 25/25/5 26/26/5
f 31/31/9 29/29/9 30/30/9 32/32/9
f 20/20/10 24/24/10 32/32/10 30/30/10
f 24/24/3 22/22/3 31/31/3 32/32/3
f 18/18/5 20/20/5 30/30/5 29/29/5
f 33/33/5 34/34/5 36/36/5 35/35/5
f 37/37/11 41/41/11 47/47/11 45/45/11
f 40/40/9 39/39/9 43/43/9 44/44/9
f 44/44/3 43/43/3 41/41/3 42/42/3
f 42/42/12 38/38/12 49/49/12 51/51/12
f 38/38/5 37/37/5 39/39/5 40/40/5
f 42/42/7 41/41/7 37/37/7 38/38/7
f 45/45/2 47/47/2 48/48/2 46/46/2
f 43/43/13 39/39/13 46/46/13 48/48/13
f 41/41/3 43/43/3 48/48/3 47/47/3
f 39/39/5 37/37/5 45/45/5 46/46/5
f 51/51/6 49/49/6 50/50/6 52/52/6
f 40/40/14 44/44/14 52/52/14 50/50/14
f 44/44/3 42/42/3 51/51/3 52/52/3
f 38/38/5 40/40/5 50/50/5 49/49/5
f 53/53/11 57/57/11 63/63/11 61/61/11
f 56/56/9 55/55/9 59/59/9 60/60/9
f 60/60/3 59/59/3 57/57/3 58/58/3
f 58/58/12 54/54/12 65/65/12 67/67/12
f 54/54/5 53/53/5 55/55/5 56/56/5
f 58/58/7 57/57/7 53/53/7 54/54/7
f 61/61/2 63/63/2 64/64/2 62/62/2
f 59/59/13 55/55/13 62/62/13 64/64/13
f 57/57/3 59/59/3 64/64/3 63/63/3
f 55/55/5 53/53/5 61/61/5 62/62/5
f 67/67/6 65/65/6 66/66/6 68/68/6
f 56/56/14 60/60/14 68/68/14 66/66/14
f 60/60/3 58/58/3 67/67/3 68/68/3
f 54/54/5 56/56/5 66/66/5 65/65/5
f 69/69/3 70/70/3 72/72/3 71/71/3
