# Blender v2.79 (sub 0) OBJ File: 'Machete.blend'
# www.blender.org
o Cube
v 0.059083 0.842673 -2.656634
v 0.059083 -0.548191 0.078663
v -0.059084 -0.548191 0.078663
v -0.059084 0.842673 -2.656635
v 0.059083 1.380937 -2.470595
v 0.059083 -0.169389 0.778526
v -0.059084 -0.169389 0.778525
v -0.059084 1.380937 -2.470595
v 0.059083 -1.863593 2.618331
v -0.059084 -1.863593 2.618330
v 0.059083 -1.343046 3.371347
v -0.059084 -1.343046 3.371346
v 0.059083 -2.181628 3.324301
v -0.059084 -2.181628 3.324301
v 0.059083 -1.776249 4.413960
v -0.059084 -1.776249 4.413959
v 0.033462 -2.238460 3.939367
v -0.033463 -2.238460 3.939367
v 0.033462 -1.912812 4.754396
v -0.033463 -1.912812 4.754395
v 0.033462 -2.181274 4.369988
v -0.033463 -2.181274 4.369988
v 0.033462 -1.988511 4.742067
v -0.033463 -1.988511 4.742066
v -0.151062 1.105167 -2.546391
v -0.076109 1.413061 -2.435653
v -0.151062 2.183013 -4.493201
v -0.076109 2.321110 -4.234814
v 0.151062 1.105167 -2.546391
v 0.076109 1.413061 -2.435653
v 0.151062 2.183013 -4.493201
v 0.076109 2.321110 -4.234814
v -0.076109 0.770315 -2.687613
v -0.076109 1.862925 -4.575363
v 0.076109 0.770315 -2.687613
v 0.076109 1.862925 -4.575363
vt 0.717216 0.704095
vt 0.484946 0.471895
vt 0.489417 0.454006
vt 0.721687 0.686206
vt 0.712370 0.688976
vt 0.707773 0.708128
vt 0.416037 0.428061
vt 0.420633 0.408908
vt 0.764085 0.684917
vt 0.743333 0.773679
vt 0.433370 0.470576
vt 0.499626 0.401006
vt 0.185381 0.206631
vt 0.189977 0.187479
vt 0.499626 0.401006
vt 0.433370 0.470576
vt 0.743333 0.773679
vt 0.764085 0.684917
vt 0.093883 0.118794
vt 0.098480 0.099641
vt 0.255020 0.134634
vt 0.180689 0.234955
vt 0.180689 0.234955
vt 0.255020 0.134634
vt 0.268458 0.255471
vt 0.272929 0.237583
vt 0.186219 0.070778
vt 0.076327 0.124545
vt 0.043131 0.097044
vt 0.126810 0.036590
vt 0.186219 0.070778
vt 0.076327 0.124545
vt 0.209851 0.196881
vt 0.214322 0.178993
vt 0.043131 0.097044
vt 0.126810 0.036590
vt 0.075266 0.045297
vt 0.041709 0.083017
vt 0.164068 0.146264
vt 0.166600 0.136133
vt 0.065154 0.086104
vt 0.067757 0.075257
vt 0.131188 0.113394
vt 0.099471 0.081686
vt 0.102003 0.071555
vt 0.133720 0.103263
vt 0.041709 0.083017
vt 0.075266 0.045297
vt 0.755696 0.747104
vt 0.746464 0.787646
vt 0.921696 0.969489
vt 0.945204 0.940074
vt 0.826591 0.809144
vt 0.821585 0.848277
vt 0.811419 0.848277
vt 0.806413 0.809144
vt 0.945204 0.940074
vt 0.921696 0.969489
vt 0.746464 0.787646
vt 0.755696 0.747104
vt 0.938016 0.929186
vt 0.924627 0.959160
vt 0.916647 0.950358
vt 0.922178 0.911716
vt 0.936614 0.877946
vt 0.944594 0.886748
vt 0.919557 0.849058
vt 0.917256 0.859791
vt 0.863299 0.818381
vt 0.867292 0.795959
vt 0.914843 0.843286
vt 0.900684 0.854467
vt 0.862452 0.807146
vt 0.862307 0.791351
vt 0.811419 0.765004
vt 0.821585 0.765004
vt 0.954006 0.889004
vt 0.771075 0.692513
vt 0.771075 0.692513
vt 0.954006 0.889004
vn 0.0000 -0.8914 -0.4533
vn -0.0000 0.9025 0.4306
vn 1.0000 -0.0000 0.0000
vn -0.0000 0.9110 0.4124
vn -1.0000 -0.0000 -0.0000
vn 0.0000 0.3267 -0.9451
vn -0.0000 0.9235 0.3837
vn 0.0000 -0.8880 -0.4599
vn 0.9952 -0.0910 0.0349
vn 0.0000 -0.9118 -0.4107
vn -0.9952 -0.0910 0.0349
vn 0.0000 -0.9958 -0.0920
vn -0.0000 0.9281 0.3723
vn 0.0000 -0.8879 0.4600
vn 0.0000 -0.9913 0.1316
vn -0.0000 -0.1608 0.9870
vn -0.9668 0.2259 0.1197
vn 0.0000 0.8819 -0.4714
vn 0.9668 0.2259 0.1197
vn 0.0000 -0.3384 0.9410
vn 0.0000 -0.3886 0.9214
vn 0.0000 0.8927 0.4506
vn 0.0000 -0.8655 -0.5009
vn 0.0000 0.2486 -0.9686
vn -0.9766 -0.1873 -0.1060
vn 0.9766 -0.1873 -0.1060
s off
f 1/1/1 2/2/1 3/3/1 4/4/1
f 5/5/2 8/6/2 7/7/2 6/8/2
f 1/9/3 5/10/3 6/11/3 2/12/3
f 6/8/4 7/7/4 12/13/4 11/14/4
f 3/15/5 7/16/5 8/17/5 4/18/5
f 5/10/6 1/9/6 4/18/6 8/17/6
f 11/14/7 12/13/7 16/19/7 15/20/7
f 7/16/5 3/15/5 10/21/5 12/22/5
f 2/12/3 6/11/3 11/23/3 9/24/3
f 3/3/8 2/2/8 9/25/8 10/26/8
f 13/27/9 15/28/9 19/29/9 17/30/9
f 9/24/3 11/23/3 15/28/3 13/27/3
f 12/22/5 10/21/5 14/31/5 16/32/5
f 10/26/10 9/25/10 13/33/10 14/34/10
f 20/35/5 18/36/5 22/37/5 24/38/5
f 16/32/11 14/31/11 18/36/11 20/35/11
f 14/34/12 13/33/12 17/39/12 18/40/12
f 15/20/13 16/19/13 20/41/13 19/42/13
f 21/43/14 23/44/14 24/45/14 22/46/14
f 18/40/15 17/39/15 21/43/15 22/46/15
f 19/29/16 20/35/16 24/38/16 23/47/16
f 17/30/3 19/29/3 23/47/3 21/48/3
f 25/49/17 26/50/17 28/51/17 27/52/17
f 27/53/18 28/54/18 32/55/18 31/56/18
f 31/57/19 32/58/19 30/59/19 29/60/19
f 29/61/20 30/62/20 26/63/20 25/64/20
f 29/61/21 25/64/21 33/65/21 35/66/21
f 32/67/22 28/68/22 26/69/22 30/70/22
f 34/71/23 36/72/23 35/73/23 33/74/23
f 27/53/24 31/56/24 36/75/24 34/76/24
f 25/49/25 27/52/25 34/77/25 33/78/25
f 31/57/26 29/60/26 35/79/26 36/80/26
