# Blender v2.79 (sub 0) OBJ File: 'R870.blend'
# www.blender.org
o Cube
v 0.089903 0.184284 -0.419738
v 0.089903 0.184284 1.250559
v -0.089903 0.184284 1.250559
v -0.089903 0.184284 -0.419738
v 0.089903 0.688590 -0.419738
v 0.089903 0.688590 1.050559
v -0.089903 0.688590 1.050559
v -0.089903 0.688590 -0.419738
v 0.112379 0.021041 1.697701
v -0.112379 0.021041 1.697701
v 0.112379 0.432065 1.703531
v -0.112379 0.432065 1.703531
v 0.112379 -0.388787 1.938016
v -0.112379 -0.388787 1.938016
v 0.112378 0.310072 1.962254
v -0.112379 0.310072 1.962254
v 0.112378 -0.319461 2.233124
v -0.112379 -0.319461 2.233124
v 0.112378 0.406388 2.250615
v -0.112379 0.406388 2.250615
v 0.112378 -0.283049 2.471354
v -0.112379 -0.283049 2.471354
v 0.112378 0.385445 2.471975
v -0.112379 0.385445 2.471974
v 0.112378 -0.898177 4.060570
v -0.112379 -0.898177 4.060570
v 0.112378 0.195428 4.182652
v -0.112379 0.195428 4.182651
v 0.112379 0.436437 -0.419738
v 0.112379 0.436437 1.150559
v -0.112379 0.436437 1.150559
v -0.112379 0.436437 -0.419738
v 0.112379 0.226553 1.700616
v -0.112379 0.226553 1.700616
v 0.157330 -0.039357 1.950135
v -0.157330 -0.039357 1.950135
v 0.157330 0.043463 2.241869
v -0.157331 0.043463 2.241869
v 0.157330 0.051198 2.471664
v -0.157331 0.051198 2.471664
v 0.157330 -0.351374 4.121611
v -0.157331 -0.351374 4.121611
v 0.000000 0.668452 -4.331827
v 0.000000 0.668452 -0.394854
v 0.081587 0.611960 -4.331827
v 0.081587 0.611960 -0.394854
v 0.081587 0.498978 -4.331827
v 0.081587 0.498978 -0.394854
v 0.000000 0.442486 -4.331827
v 0.000000 0.442486 -0.394854
v -0.081587 0.498978 -4.331827
v -0.081587 0.498978 -0.394854
v -0.081587 0.611960 -4.331827
v -0.081587 0.611960 -0.394854
v 0.000000 0.426219 -4.331827
v 0.000000 0.426219 -0.394854
v 0.081587 0.369727 -4.331827
v 0.081587 0.369727 -0.394854
v 0.081587 0.256745 -4.331827
v 0.081587 0.256745 -0.394854
v 0.000000 0.200253 -4.331827
v 0.000000 0.200253 -0.394854
v -0.081587 0.256745 -4.331827
v -0.081587 0.256745 -0.394854
v -0.081587 0.369727 -4.331827
v -0.081587 0.369727 -0.394854
v -0.046002 0.128724 1.268584
v -0.069003 0.282047 1.289785
v -0.046002 0.086321 1.150596
v -0.069003 0.206665 1.032812
v 0.046002 0.128724 1.268584
v 0.069003 0.282047 1.289785
v 0.046002 0.086321 1.150596
v 0.069003 0.206665 1.032812
v -0.046002 0.024117 1.235920
v -0.046002 -0.008862 1.157978
v 0.046002 0.024117 1.235920
v 0.046002 -0.008862 1.157978
v -0.046002 -0.069562 1.150252
v -0.046002 -0.038938 1.107645
v 0.046002 -0.069562 1.150252
v 0.046002 -0.038938 1.107645
v -0.046002 -0.071262 0.914450
v -0.046002 -0.040639 0.895400
v 0.046002 -0.071262 0.914450
v 0.046002 -0.040639 0.895400
v -0.046002 0.007828 0.725191
v -0.046002 0.040808 0.781523
v 0.046002 0.007828 0.725191
v 0.046002 0.040808 0.781523
v -0.046002 0.092656 0.613126
v -0.046002 0.097368 0.768396
v 0.046002 0.092656 0.613126
v 0.046002 0.097368 0.768396
v -0.069003 0.236430 0.321227
v -0.069003 0.245853 0.900520
v 0.069003 0.236430 0.321227
v 0.069003 0.245853 0.900520
v 0.000000 0.675696 -3.907817
v 0.000000 0.675697 -3.618865
v 0.099800 0.617457 -3.907817
v 0.099800 0.617457 -3.618865
v 0.099800 0.500978 -3.907817
v 0.099800 0.500978 -3.618865
v 0.000000 0.433896 -3.907817
v 0.000000 0.433896 -3.618865
v -0.099800 0.500978 -3.907817
v -0.099800 0.500978 -3.618865
v -0.099800 0.617457 -3.907817
v -0.099800 0.617457 -3.618865
v 0.000000 0.433896 -3.907817
v 0.000000 0.433896 -3.618865
v 0.099800 0.367727 -3.907817
v 0.099800 0.367727 -3.618865
v 0.099800 0.251248 -3.907817
v 0.099800 0.251248 -3.618865
v 0.000000 0.193008 -3.907817
v 0.000000 0.193008 -3.618865
v -0.099800 0.251248 -3.907817
v -0.099800 0.251248 -3.618865
v -0.099800 0.367727 -3.907817
v -0.099800 0.367727 -3.618865
v 0.000000 0.559660 -2.899028
v 0.000000 0.559660 -1.221685
v 0.116441 0.441182 -2.899028
v 0.116441 0.441182 -1.221685
v 0.116441 0.204225 -2.899028
v 0.116441 0.204225 -1.221685
v -0.000000 0.085747 -2.899028
v -0.000000 0.085747 -1.221685
v -0.116441 0.204225 -2.899028
v -0.116441 0.204225 -1.221685
v -0.116441 0.441182 -2.899028
v -0.116441 0.441182 -1.221685
v 0.000000 0.442486 -2.874637
v 0.000000 0.442486 -0.394854
v 0.000000 0.426219 -2.874637
v 0.000000 0.426219 -0.394854
v -0.031514 0.107524 1.022551
v -0.031514 0.213018 1.019345
v -0.031514 0.097965 0.980579
v -0.031514 0.203459 0.957045
v 0.031514 0.107524 1.022551
v 0.031514 0.213018 1.019345
v 0.031514 0.097965 0.980579
v 0.031514 0.203459 0.957045
v -0.031514 0.085927 1.009847
v -0.031514 0.086531 0.975497
v 0.031514 0.085927 1.009847
v 0.031514 0.086531 0.975497
v -0.031514 -0.009695 0.953008
v -0.031514 0.010139 0.924956
v 0.031514 -0.009695 0.953008
v 0.031514 0.010139 0.924956
vt 0.475020 0.717451
vt 0.577804 0.706433
vt 0.577545 0.723777
vt 0.474762 0.734794
vt 0.463791 0.788380
vt 0.463791 0.778416
vt 0.621193 0.778416
vt 0.621193 0.788380
vt 0.461066 0.744047
vt 0.457990 0.791976
vt 0.618302 0.795076
vt 0.621357 0.736049
vt 0.697670 0.740072
vt 0.687749 0.710207
vt 0.621357 0.736049
vt 0.618302 0.795076
vt 0.457990 0.791976
vt 0.461066 0.744047
vt 0.462604 0.689966
vt 0.462604 0.689966
vt 0.771854 0.710583
vt 0.773301 0.706499
vt 0.785314 0.711095
vt 0.783867 0.715179
vt 0.638231 0.693006
vt 0.637065 0.687732
vt 0.666206 0.682540
vt 0.667663 0.689132
vt 0.626274 0.794896
vt 0.626274 0.790891
vt 0.688546 0.733914
vt 0.688546 0.738919
vt 0.621705 0.683053
vt 0.678684 0.674709
vt 0.687749 0.710207
vt 0.728751 0.640552
vt 0.715965 0.718098
vt 0.765173 0.706876
vt 0.773551 0.648486
vt 0.725653 0.701924
vt 0.725540 0.673423
vt 0.734881 0.605685
vt 0.738201 0.655049
vt 0.744146 0.653785
vt 0.729065 0.648009
vt 0.736759 0.579253
vt 0.751840 0.585029
vt 0.773551 0.648486
vt 0.778946 0.581571
vt 0.815542 0.568487
vt 0.815476 0.640529
vt 0.728750 0.640552
vt 0.741041 0.578781
vt 0.836862 0.582843
vt 0.832488 0.559121
vt 0.850276 0.549677
vt 0.854651 0.573399
vt 0.770000 0.714754
vt 0.770035 0.724694
vt 0.804352 0.714697
vt 0.804317 0.704757
vt 0.815866 0.691106
vt 0.815901 0.701046
vt 0.995456 0.677953
vt 0.995421 0.668013
vt 0.864449 0.541109
vt 0.868824 0.564831
vt 0.814347 0.711160
vt 0.815476 0.640529
vt 0.989077 0.671857
vt 0.981286 0.674892
vt 0.980676 0.668531
vt 0.988224 0.662953
vt 0.995147 0.678434
vt 0.991795 0.560086
vt 0.981608 0.438807
vt 0.991795 0.560086
vt 0.885416 0.518202
vt 0.885416 0.524453
vt 0.970806 0.460602
vt 0.970806 0.454351
vt 0.814347 0.711160
vt 0.995147 0.678434
vt 0.815542 0.568487
vt 0.981608 0.438807
vt 0.996624 0.666279
vt 0.996015 0.659919
vt 0.778946 0.581571
vt 0.715965 0.718098
vt 0.765173 0.706876
vt 0.697670 0.740072
vt 0.742239 0.665151
vt 0.742064 0.695461
vt 0.725072 0.654267
vt 0.727759 0.602161
vt 0.741041 0.578781
vt 0.621705 0.683053
vt 0.678684 0.674709
vt 0.010213 0.781782
vt 0.459212 0.780553
vt 0.459212 0.772661
vt 0.010213 0.774146
vt 0.459212 0.756877
vt 0.010213 0.758875
vt 0.459212 0.748600
vt 0.010213 0.751239
vt 0.459212 0.756877
vt 0.010213 0.758875
vt 0.459212 0.772661
vt 0.010213 0.774146
vt 0.240652 0.588019
vt 0.205322 0.542158
vt 0.205322 0.445654
vt 0.240652 0.395010
vt 0.275981 0.440871
vt 0.275981 0.537375
vt 0.012539 0.719730
vt 0.459212 0.725747
vt 0.459212 0.716884
vt 0.012539 0.714430
vt 0.459212 0.699159
vt 0.012539 0.703829
vt 0.459212 0.690296
vt 0.012539 0.698529
vt 0.459212 0.699159
vt 0.012539 0.703829
vt 0.459212 0.716884
vt 0.012539 0.714430
vt 0.240778 0.587625
vt 0.205014 0.541200
vt 0.205014 0.443507
vt 0.240778 0.392239
vt 0.276542 0.438665
vt 0.276542 0.536358
vt 0.651094 0.654004
vt 0.662432 0.698877
vt 0.638573 0.692411
vt 0.646639 0.654462
vt 0.640130 0.675741
vt 0.647097 0.676091
vt 0.647097 0.676091
vt 0.640130 0.675741
vt 0.646639 0.654462
vt 0.638573 0.692411
vt 0.662432 0.698877
vt 0.651094 0.654004
vt 0.594344 0.655444
vt 0.594043 0.672557
vt 0.588007 0.670759
vt 0.590320 0.654245
vt 0.599745 0.639735
vt 0.601488 0.635014
vt 0.599501 0.637773
vt 0.599260 0.641547
vt 0.598130 0.639158
vt 0.598869 0.641482
vt 0.601488 0.635014
vt 0.599501 0.637773
vt 0.599745 0.639735
vt 0.599260 0.641547
vt 0.598130 0.639158
vt 0.594672 0.644453
vt 0.594672 0.644453
vt 0.598869 0.641482
vt 0.596556 0.648223
vt 0.596556 0.648223
vt 0.594971 0.655756
vt 0.594971 0.655756
vt 0.590208 0.652401
vt 0.578847 0.665171
vt 0.592892 0.664751
vt 0.590208 0.652401
vt 0.578847 0.665171
vt 0.543302 0.695595
vt 0.543302 0.695595
vt 0.592892 0.664751
vt 0.607544 0.697685
vt 0.607544 0.697685
vt 0.059173 0.784194
vt 0.077990 0.784194
vt 0.077990 0.776199
vt 0.059173 0.776199
vt 0.077990 0.750364
vt 0.059173 0.750364
vt 0.077990 0.735486
vt 0.059173 0.735486
vt 0.077990 0.750364
vt 0.059173 0.750364
vt 0.077990 0.776199
vt 0.059173 0.776199
vt 0.059173 0.735486
vt 0.077990 0.735486
vt 0.077990 0.720810
vt 0.059173 0.720810
vt 0.077990 0.694975
vt 0.059173 0.694975
vt 0.077990 0.677751
vt 0.059173 0.677751
vt 0.077990 0.694975
vt 0.059173 0.694975
vt 0.077990 0.720810
vt 0.059173 0.720810
vt 0.179517 0.747490
vt 0.364035 0.744389
vt 0.364229 0.735551
vt 0.180098 0.736714
vt 0.364423 0.683383
vt 0.180873 0.684546
vt 0.365973 0.666333
vt 0.184749 0.671371
vt 0.364423 0.683383
vt 0.180873 0.684546
vt 0.356574 0.727733
vt 0.348755 0.745549
vt 0.340936 0.727386
vt 0.340936 0.691407
vt 0.348755 0.673591
vt 0.356574 0.691754
vt 0.364229 0.735551
vt 0.180098 0.736714
vt 0.352090 0.730349
vt 0.346330 0.718645
vt 0.346330 0.695220
vt 0.352090 0.683499
vt 0.357850 0.695203
vt 0.357850 0.718629
vt 0.459212 0.725747
vt 0.459212 0.748600
vt 0.173332 0.737391
vt 0.173332 0.733783
vt 0.649876 0.654906
vt 0.649744 0.663628
vt 0.647168 0.662837
vt 0.648141 0.654116
vt 0.647168 0.662837
vt 0.648141 0.654116
vt 0.649744 0.663628
vt 0.649876 0.654906
vt 0.649351 0.653120
vt 0.649351 0.653120
vt 0.647931 0.653170
vt 0.647001 0.645215
vt 0.645842 0.646855
vt 0.647931 0.653170
vt 0.645842 0.646855
vt 0.647001 0.645215
vn 0.0000 -1.0000 0.0000
vn 0.0000 1.0000 0.0000
vn 0.9961 0.0888 0.0000
vn 0.9988 0.0491 0.0004
vn -0.9961 0.0888 -0.0000
vn 0.0000 0.0000 -1.0000
vn -0.0000 0.9045 0.4265
vn 0.0000 -0.9394 -0.3429
vn -0.0000 0.9308 0.3657
vn -0.9973 -0.0584 -0.0443
vn 0.9912 0.1262 -0.0390
vn 0.9963 0.0814 -0.0260
vn -0.9786 -0.0741 -0.1920
vn 0.0000 -0.5058 -0.8626
vn -0.9917 -0.1280 0.0121
vn -0.9915 -0.1261 0.0327
vn 0.0000 -0.9735 0.2287
vn 0.0000 0.9485 -0.3168
vn 0.0000 0.9939 0.1104
vn 0.0000 -0.9885 0.1511
vn -0.0000 0.9956 0.0942
vn 0.9918 0.1278 0.0037
vn 0.0000 -0.1109 0.9938
vn 0.9948 0.1003 0.0177
vn -0.9946 -0.0993 -0.0312
vn 0.0000 -0.9326 -0.3610
vn -0.9948 0.1003 0.0177
vn 0.9946 -0.0993 -0.0312
vn 0.9917 -0.1280 0.0121
vn -0.9912 0.1262 -0.0390
vn -0.9918 0.1278 0.0037
vn -0.9963 0.0814 -0.0260
vn 0.9786 -0.0741 -0.1920
vn 0.9915 -0.1261 0.0327
vn -0.9988 0.0491 0.0004
vn -0.9961 -0.0888 -0.0000
vn 0.9973 -0.0584 -0.0443
vn 0.9961 -0.0888 0.0000
vn 0.5693 0.8222 0.0000
vn 1.0000 0.0000 0.0000
vn 0.5693 -0.8222 -0.0000
vn -0.5693 -0.8222 -0.0000
vn -0.0000 0.0000 1.0000
vn -1.0000 0.0000 0.0000
vn -0.5693 0.8222 0.0000
vn -0.9877 -0.1495 0.0469
vn 0.0000 -0.6995 -0.7147
vn 0.9877 -0.1495 0.0469
vn 0.0000 -0.1370 0.9906
vn 0.0000 0.9596 -0.2815
vn 0.0000 -0.2981 0.9545
vn 0.0000 -0.0773 -0.9970
vn 0.0000 -1.0000 0.0072
vn 0.0000 -0.6748 0.7380
vn 0.0000 0.8584 -0.5129
vn 0.0000 0.8134 0.5817
vn 0.0000 1.0000 -0.0080
vn 0.0000 -0.9227 -0.3856
vn 0.0000 -0.8971 -0.4419
vn 0.0000 -0.7973 -0.6035
vn 0.0000 0.2261 0.9741
vn 0.0000 0.9999 -0.0163
vn 0.0000 -0.6647 0.7471
vn 0.9881 -0.1539 0.0030
vn -0.9881 -0.1539 0.0030
vn 0.5040 0.8637 -0.0000
vn 0.5579 -0.8299 -0.0000
vn -0.5579 -0.8299 -0.0000
vn -0.5040 0.8637 -0.0000
vn 0.5526 0.8335 -0.0000
vn 0.5040 -0.8637 -0.0000
vn -0.5040 -0.8637 -0.0000
vn -0.5526 0.8335 -0.0000
vn 0.7132 0.7009 0.0000
vn 0.7132 -0.7009 0.0000
vn -0.7132 -0.7009 -0.0000
vn -0.7132 0.7009 0.0000
vn 0.0000 -0.2177 -0.9760
vn 0.0000 0.0304 0.9995
vn 0.0000 -0.5070 0.8619
vn 0.0000 0.9884 -0.1517
vn 0.0000 0.4061 -0.9138
vn 0.0000 -0.8165 -0.5773
vn 0.0000 -0.5110 0.8596
vn 0.0000 0.5518 -0.8340
s off
f 1/1/1 2/2/1 3/3/1 4/4/1
f 5/5/2 8/6/2 7/7/2 6/8/2
f 29/9/3 5/10/3 6/11/3 30/12/3
f 30/12/4 6/11/4 11/13/4 33/14/4
f 31/15/5 7/16/5 8/17/5 32/18/5
f 29/9/6 1/19/6 4/20/6 32/18/6
f 11/21/7 12/22/7 16/23/7 15/24/7
f 3/25/8 2/26/8 9/27/8 10/28/8
f 6/29/9 7/30/9 12/31/9 11/32/9
f 31/15/10 3/33/10 10/34/10 34/35/10
f 35/36/11 15/37/11 19/38/11 37/39/11
f 33/14/12 11/13/12 15/37/12 35/36/12
f 34/40/13 10/41/13 14/42/13 36/43/13
f 10/44/14 9/45/14 13/46/14 14/47/14
f 38/48/15 18/49/15 22/50/15 40/51/15
f 36/52/16 14/53/16 18/49/16 38/48/16
f 14/54/17 13/55/17 17/56/17 18/57/17
f 15/58/18 16/59/18 20/60/18 19/61/18
f 23/62/19 24/63/19 28/64/19 27/65/19
f 18/57/20 17/56/20 21/66/20 22/67/20
f 19/61/21 20/60/21 24/63/21 23/62/21
f 37/39/22 19/38/22 23/68/22 39/69/22
f 41/70/23 27/71/23 28/72/23 42/73/23
f 39/69/24 23/68/24 27/74/24 41/75/24
f 40/51/25 22/50/25 26/76/25 42/77/25
f 22/78/26 21/79/26 25/80/26 26/81/26
f 24/82/27 40/51/27 42/77/27 28/83/27
f 21/84/28 39/69/28 41/75/28 25/85/28
f 25/86/23 41/70/23 42/73/23 26/87/23
f 17/88/29 37/39/29 39/69/29 21/84/29
f 16/89/30 36/52/30 38/48/30 20/90/30
f 20/90/31 38/48/31 40/51/31 24/82/31
f 12/91/32 34/35/32 36/52/32 16/89/32
f 9/92/33 33/93/33 35/94/33 13/95/33
f 13/96/34 35/36/34 37/39/34 17/88/34
f 7/16/35 31/15/35 34/35/35 12/91/35
f 5/10/6 29/9/6 32/18/6 8/17/6
f 3/33/36 31/15/36 32/18/36 4/20/36
f 2/97/37 30/12/37 33/14/37 9/98/37
f 1/19/38 29/9/38 30/12/38 2/97/38
f 43/99/39 44/100/39 46/101/39 45/102/39
f 45/102/40 46/101/40 48/103/40 47/104/40
f 47/104/41 48/103/41 50/105/41 49/106/41
f 49/106/42 50/105/42 52/107/42 51/108/42
f 46/101/43 44/100/43 54/109/43 52/107/43 50/105/43 48/103/43
f 51/108/44 52/107/44 54/109/44 53/110/44
f 53/110/45 54/109/45 44/100/45 43/99/45
f 43/111/6 45/112/6 47/113/6 49/114/6 51/115/6 53/116/6
f 55/117/39 56/118/39 58/119/39 57/120/39
f 57/120/40 58/119/40 60/121/40 59/122/40
f 59/122/41 60/121/41 62/123/41 61/124/41
f 61/124/42 62/123/42 64/125/42 63/126/42
f 58/119/43 56/118/43 66/127/43 64/125/43 62/123/43 60/121/43
f 63/126/44 64/125/44 66/127/44 65/128/44
f 65/128/45 66/127/45 56/118/45 55/117/45
f 55/129/6 57/130/6 59/131/6 61/132/6 63/133/6 65/134/6
f 67/135/46 68/136/46 70/137/46 69/138/46
f 69/139/47 70/140/47 74/141/47 73/142/47
f 73/143/48 74/144/48 72/145/48 71/146/48
f 71/147/49 72/148/49 68/149/49 67/150/49
f 73/151/40 71/152/40 77/153/40 78/154/40
f 74/144/50 70/137/50 68/136/50 72/145/50
f 78/154/40 77/153/40 81/155/40 82/156/40
f 71/152/51 67/157/51 75/158/51 77/153/51
f 69/159/52 73/151/52 78/154/52 76/160/52
f 67/157/44 69/159/44 76/160/44 75/158/44
f 81/155/53 79/161/53 83/162/53 85/163/53
f 75/158/44 76/160/44 80/164/44 79/161/44
f 77/153/54 75/158/54 79/161/54 81/155/54
f 76/160/55 78/154/55 82/156/55 80/164/55
f 84/165/56 86/166/56 90/167/56 88/168/56
f 80/164/57 82/156/57 86/166/57 84/165/57
f 82/156/40 81/155/40 85/163/40 86/166/40
f 79/161/44 80/164/44 84/165/44 83/162/44
f 90/167/40 89/169/40 93/170/40 94/171/40
f 86/166/40 85/163/40 89/169/40 90/167/40
f 83/162/44 84/165/44 88/168/44 87/172/44
f 85/163/58 83/162/58 87/172/58 89/169/58
f 93/170/59 91/173/59 95/174/59 97/175/59
f 87/172/44 88/168/44 92/176/44 91/173/44
f 89/169/60 87/172/60 91/173/60 93/170/60
f 88/168/61 90/167/61 94/171/61 92/176/61
f 96/177/62 98/178/62 97/175/62 95/174/62
f 92/176/63 94/171/63 98/178/63 96/177/63
f 94/171/64 93/170/64 97/175/64 98/178/64
f 91/173/65 92/176/65 96/177/65 95/174/65
f 99/179/66 100/180/66 102/181/66 101/182/66
f 101/182/40 102/181/40 104/183/40 103/184/40
f 103/184/67 104/183/67 106/185/67 105/186/67
f 105/186/68 106/185/68 108/187/68 107/188/68
f 102/181/43 100/180/43 110/189/43 108/187/43 106/185/43 104/183/43
f 107/188/44 108/187/44 110/189/44 109/190/44
f 109/190/69 110/189/69 100/180/69 99/179/69
f 99/179/6 101/182/6 103/184/6 105/186/6 107/188/6 109/190/6
f 111/191/70 112/192/70 114/193/70 113/194/70
f 113/194/40 114/193/40 116/195/40 115/196/40
f 115/196/71 116/195/71 118/197/71 117/198/71
f 117/198/72 118/197/72 120/199/72 119/200/72
f 114/193/43 112/192/43 122/201/43 120/199/43 118/197/43 116/195/43
f 119/200/44 120/199/44 122/201/44 121/202/44
f 121/202/73 122/201/73 112/192/73 111/191/73
f 111/191/6 113/194/6 115/196/6 117/198/6 119/200/6 121/202/6
f 123/203/74 124/204/74 126/205/74 125/206/74
f 125/206/40 126/205/40 128/207/40 127/208/40
f 127/208/75 128/207/75 130/209/75 129/210/75
f 129/210/76 130/209/76 132/211/76 131/212/76
f 126/213/43 124/214/43 134/215/43 132/216/43 130/217/43 128/218/43
f 131/212/44 132/211/44 134/219/44 133/220/44
f 133/220/77 134/219/77 124/204/77 123/203/77
f 123/221/6 125/222/6 127/223/6 129/224/6 131/225/6 133/226/6
f 138/227/44 136/228/44 135/229/44 137/230/44
f 139/231/44 140/232/44 142/233/44 141/234/44
f 141/234/78 142/233/78 146/235/78 145/236/78
f 145/236/40 146/235/40 144/237/40 143/238/40
f 143/238/79 144/237/79 140/232/79 139/231/79
f 143/238/80 139/231/80 147/239/80 149/240/80
f 146/235/81 142/233/81 140/232/81 144/237/81
f 150/241/40 149/240/40 153/242/40 154/243/40
f 141/234/82 145/236/82 150/241/82 148/244/82
f 139/231/44 141/234/44 148/244/44 147/239/44
f 145/236/40 143/238/40 149/240/40 150/241/40
f 152/245/83 154/243/83 153/242/83 151/246/83
f 147/239/44 148/244/44 152/245/44 151/246/44
f 149/240/84 147/239/84 151/246/84 153/242/84
f 148/244/85 150/241/85 154/243/85 152/245/85
